<svg xmlns="http://www.w3.org/2000/svg" viewBox="0 0 277.25 337.48"><defs><style>.cls-1,.cls-6{stroke:#000;}.cls-1,.cls-6,.cls-7{stroke-miterlimit:10;}.cls-2,.cls-5{fill:#fff;}.cls-3{opacity:0.5;}.cls-4{opacity:0.1;}.cls-5{opacity:0.8;}.cls-6{fill:none;stroke-width:3px;}.cls-7{stroke:#fff;}</style></defs><g id="Color"><path class="cls-1" d="M230.55,198" transform="translate(-186.46 -60.19)"/><polyline class="cls-2" points="44.1 137.76 45.92 117.83 52.16 86.43 63.21 56.45 74.64 37.17 81.58 28.59 89.01 21.27 111.08 7.43 124.25 3.25 151.88 2.72 174.01 11.59 196.83 32.43 209.13 51.57 219.1 76.33 225.21 113.73 227.22 143.87 229.1 159.48 233.44 178.05 243.1 205.04 256.57 232.88 263.67 243.82 275.04 257 256.9 269.85 233.19 283.81 200.96 300.48 184.43 308.35 181.54 318.68 171.27 328.18 162.89 331.97 151.54 334.82 141.74 335.87 131.47 335.78 121.94 334.57 112.81 332.22 103.32 327.86 95.91 321.63 92.27 315.42 91.12 310.39 82.78 305.84 69.18 300.73 54.78 294.12 44.1 288.32 31.59 280.34 20.14 271.55 8.46 260.49 2.38 253.48 8.78 248.83 17.03 239.41 24 227.98 29.95 214.64 33.2 205.23 39.38 179.81 42.18 160.85 44.1 137.76"/><circle class="cls-3" cx="138.71" cy="84.37" r="39.45"/><circle class="cls-3" cx="138.71" cy="84.37" r="25.9"/><path class="cls-2" d="M316.61,163.59s-8.23-1.88-11.88-12.59h2.82s1.53,6.29,9.6,9.78" transform="translate(-186.46 -60.19)"/><path class="cls-2" d="M337.94,135.59l6.11-1.09s-1.4-5.74-6.23-7.38l-2,6" transform="translate(-186.46 -60.19)"/><path class="cls-4" d="M223.22,343.83s-38-27.54-34.38-30.16S199,306.22,199,306.22l8.89-13.62L215,276,224,240.23l4-25.85.71-19.8L232,171.49,236.65,149l7.45-21.21,9.28-18.24L268,88.78S205.49,328.32,223.22,343.83Z" transform="translate(-186.46 -60.19)"/><circle class="cls-5" cx="138.71" cy="84.37" r="6.96"/><circle class="cls-2" cx="138.71" cy="84.37" r="4.55"/></g><g id="Contorno"><path class="cls-6" d="M230.55,198" transform="translate(-186.46 -60.19)"/><path class="cls-6" d="M230.55,198c2.72-51.67,22.06-121.42,80.15-134.52C361.5,52,396.61,99,407.25,142.8c7.63,31.44,2.73,64.35,12.64,95.44,8.34,26.15,21.47,59.91,41.61,78.94,0,0-21.05,19-90.61,51.36,0,36.49-93.41,37.17-93.41,0,0,0-56.14-14.28-88.64-54.87C188.84,313.67,225.32,297.34,230.55,198Z" transform="translate(-186.46 -60.19)"/><path class="cls-6" d="M305.16,277.28" transform="translate(-186.46 -60.19)"/><path class="cls-6" d="M291.38,323.25" transform="translate(-186.46 -60.19)"/><path class="cls-6" d="M361.34,322.57" transform="translate(-186.46 -60.19)"/><path class="cls-6" d="M380.43,368.54" transform="translate(-186.46 -60.19)"/><line class="cls-6" x1="91.12" y1="306.79" x2="97.49" y2="285.55"/><line class="cls-6" x1="184.43" y1="308.35" x2="178.16" y2="285.55"/><circle class="cls-6" cx="138.71" cy="84.37" r="25.9"/><path class="cls-7" d="M347.63,167.46c1.09,1.25,1.09,2.65,0,3.56a1.85,1.85,0,0,1-1.47.45v-.23a1.6,1.6,0,0,0,1.31-.4c1-.83.9-2.06-.1-3.21s-2.2-1.41-3.13-.6a1.77,1.77,0,0,0-.67,1.15l1.14,1.32,1-.86.15.17-1.19,1-1.34-1.55a2,2,0,0,1,.77-1.45C345.16,166,346.54,166.2,347.63,167.46Z" transform="translate(-186.46 -60.19)"/><path class="cls-7" d="M344.87,173.1l-.22.14-1.24-2-2.51,1.56,1.23,2-.21.13-2.78-4.49.21-.13,1.43,2.3,2.52-1.56-1.43-2.3.22-.14Z" transform="translate(-186.46 -60.19)"/><path class="cls-7" d="M339.25,173.39c.63,1.54.2,2.86-1,3.33s-2.38-.17-3-1.71-.22-2.88.94-3.35S338.62,171.85,339.25,173.39Zm-3.71,1.52c.57,1.41,1.63,2,2.67,1.59s1.36-1.6.79-3-1.64-2-2.68-1.62S335,173.5,335.54,174.91Z" transform="translate(-186.46 -60.19)"/><path class="cls-7" d="M333.86,173.39l-.13.22a2.06,2.06,0,0,0-1.71-.35c-.83.2-1.25.78-1.09,1.43s.65.8,1.22.91l.88.17a1.43,1.43,0,0,1,1.35,1,1.34,1.34,0,0,1-1.15,1.58,2,2,0,0,1-1.55-.27l.12-.21a1.68,1.68,0,0,0,1.37.24c.72-.17,1.11-.68,1-1.27s-.74-.75-1.15-.82l-.88-.17c-.63-.12-1.22-.3-1.42-1.09A1.48,1.48,0,0,1,332,173,2.29,2.29,0,0,1,333.86,173.39Z" transform="translate(-186.46 -60.19)"/><path class="cls-7" d="M329,178.76l1.71-.18,0,.22-3.66.39,0-.22,1.7-.18-.53-5,.25,0Z" transform="translate(-186.46 -60.19)"/><path class="cls-7" d="M324.1,179.29l-.27,0-.34-3.25c-.07-.59-.13-1.18-.19-1.76h0c-.19.56-.39,1.12-.6,1.67L321.45,179l-.29,0-.5-3.28-.24-1.76h0l-.56,1.68-1.05,3.1-.26,0,1.79-5.11.26,0,.6,3.88c.05.42.1.78.15,1.21h0c.15-.4.3-.74.44-1.14l1.42-3.66.25,0Z" transform="translate(-186.46 -60.19)"/><path class="cls-7" d="M315.74,177.9l-.21-.06-.37-5.6.27.08.19,3.35c0,.67.07,1.25.08,1.93h0c.36-.58.69-1.05,1.09-1.6l1.94-2.74.25.07Zm1.9-2.75-2.25-.65.06-.21,2.26.64Z" transform="translate(-186.46 -60.19)"/><path class="cls-7" d="M311.77,176.27l1.57.67-.09.2-3.38-1.44.09-.21,1.57.68,2-4.65.23.1Z" transform="translate(-186.46 -60.19)"/><path class="cls-7" d="M310.27,173c-.86,1.43-2.15,1.88-3.31,1.19a1.76,1.76,0,0,1-.83-1.23l.23-.06a1.55,1.55,0,0,0,.72,1.09c1.05.62,2.17.18,3-1.13s.66-2.53-.36-3.14a1.72,1.72,0,0,0-1.52-.13l-.06-.22a1.92,1.92,0,0,1,1.72.15C310.93,170.15,311.13,171.53,310.27,173Z" transform="translate(-186.46 -60.19)"/><path class="cls-7" d="M304.32,172.28l-.19-.16,1.5-1.81-2.27-1.89-1.51,1.8-.2-.16L305,166l.19.17-1.73,2.07,2.28,1.9,1.73-2.08.2.17Z" transform="translate(-186.46 -60.19)"/><circle class="cls-6" cx="138.71" cy="84.37" r="39.45"/><path class="cls-7" d="M304.43,116.81l.18-.14,4.67,3.12-.22.16-2.78-1.89c-.56-.38-1-.7-1.58-1.11l0,0c.24.64.41,1.19.61,1.84l1,3.21-.2.15Zm1,3.18,1.89-1.4.13.18-1.88,1.4Z" transform="translate(-186.46 -60.19)"/><path class="cls-7" d="M307.34,114.82l1.11-.6c1.05-.58,1.84-.58,2.35.35s.13,1.64-.91,2.21l-.91.5,1.12,2-.22.13Zm2.36,1.81c1-.54,1.3-1.13.86-1.93s-1.08-.8-2.09-.24l-.8.44,1.2,2.19Z" transform="translate(-186.46 -60.19)"/><path class="cls-7" d="M311.68,112.61l1.18-.44c1.13-.43,1.91-.31,2.28.68s-.1,1.65-1.21,2.06l-1,.37.82,2.19-.24.09Zm2.08,2.13c1.07-.4,1.45-.94,1.12-1.79s-.95-1-2-.54l-.85.32.88,2.34Z" transform="translate(-186.46 -60.19)"/><path class="cls-7" d="M316.28,111.05l.25-.06,1.15,4.93,2.42-.56,0,.22-2.67.62Z" transform="translate(-186.46 -60.19)"/><path class="cls-7" d="M320.23,110.27l.26,0,.72,5.23-.25,0Z" transform="translate(-186.46 -60.19)"/><path class="cls-7" d="M322.21,112.63c-.06-1.66.78-2.75,2.12-2.8a1.77,1.77,0,0,1,1.37.58l-.16.18a1.5,1.5,0,0,0-1.2-.52c-1.21,0-1.92,1-1.86,2.55s.83,2.48,2,2.44a1.74,1.74,0,0,0,1.35-.72l.17.15a1.93,1.93,0,0,1-1.53.81C323.19,115.35,322.27,114.29,322.21,112.63Z" transform="translate(-186.46 -60.19)"/><path class="cls-7" d="M328.67,110.1l.22,0,1.33,5.45-.27,0-.77-3.26c-.15-.66-.29-1.22-.41-1.9h0c-.26.63-.51,1.15-.8,1.77l-1.44,3-.25,0Zm-1.39,3,2.33.24,0,.22-2.33-.24Z" transform="translate(-186.46 -60.19)"/><path class="cls-7" d="M332.87,111l-1.67-.39.05-.22,3.58.84-.05.21-1.66-.38L332,116l-.25,0Z" transform="translate(-186.46 -60.19)"/><path class="cls-7" d="M336.17,111.71l.25.09-1.7,5-.24-.08Z" transform="translate(-186.46 -60.19)"/><path class="cls-7" d="M336.91,114.69c.71-1.5,2-2.07,3.1-1.54s1.49,1.87.78,3.37-2,2.11-3.12,1.58S336.2,116.2,336.91,114.69Zm3.63,1.72c.65-1.38.38-2.57-.63-3s-2.1.06-2.75,1.44-.4,2.59.62,3.07S339.89,117.78,340.54,116.41Z" transform="translate(-186.46 -60.19)"/><path class="cls-7" d="M343.55,115.15l.22.15-.3,4.51-.09,1.21h0c.28-.43.54-.83.83-1.24l2-2.8.19.13-3,4.33-.22-.15.3-4.51.1-1.2,0,0c-.27.41-.51.79-.8,1.2l-2,2.84-.19-.13Z" transform="translate(-186.46 -60.19)"/></g></svg>