<svg xmlns="http://www.w3.org/2000/svg" viewBox="0 0 420.38 428.86"><defs><style>.cls-1,.cls-6{stroke:#000;}.cls-1,.cls-6,.cls-7,.cls-9{stroke-miterlimit:10;}.cls-2,.cls-5{fill:#fff;}.cls-3{opacity:0.5;}.cls-4{opacity:0.1;}.cls-5{opacity:0.8;}.cls-6,.cls-9{fill:none;}.cls-6{stroke-width:3px;}.cls-7{stroke:#fff;}.cls-8{fill:#333;}.cls-9{stroke:#ed1c24;stroke-width:8px;}.cls-10{fill:#ed1c24;}</style></defs><g id="Color"><path class="cls-1" d="M230.55,198" transform="translate(-114.97 -14.5)"/><polyline class="cls-2" points="115.58 183.45 117.4 163.51 123.64 132.12 134.69 102.14 146.12 82.86 153.06 74.28 160.49 66.95 182.56 53.12 195.73 48.93 223.36 48.41 245.5 57.27 268.31 78.12 280.61 97.26 290.58 122.02 296.69 159.42 298.69 189.55 300.58 205.17 304.92 223.74 314.58 250.73 328.05 278.57 335.14 289.51 346.52 302.69 328.38 315.54 304.67 329.5 272.44 346.17 255.91 354.04 253.03 364.37 242.75 373.87 234.37 377.66 223.03 380.51 213.22 381.56 202.95 381.47 193.41 380.26 184.29 377.91 174.8 373.55 167.39 367.32 163.75 361.11 162.6 356.08 154.27 351.53 140.66 346.42 126.26 339.81 115.58 334.01 103.07 326.03 91.62 317.24 79.94 306.18 73.86 299.17 80.26 294.51 88.51 285.09 95.48 273.67 101.43 260.33 104.68 250.92 110.86 225.5 113.66 206.54 115.58 183.45"/><circle class="cls-3" cx="210.19" cy="130.06" r="39.45"/><circle class="cls-3" cx="210.19" cy="130.06" r="25.9"/><path class="cls-2" d="M316.61,163.59s-8.23-1.88-11.88-12.59h2.82s1.53,6.29,9.6,9.78" transform="translate(-114.97 -14.5)"/><path class="cls-2" d="M337.94,135.59l6.11-1.09s-1.4-5.74-6.23-7.38l-2,6" transform="translate(-114.97 -14.5)"/><path class="cls-4" d="M223.22,343.83s-38-27.54-34.38-30.16S199,306.22,199,306.22l8.89-13.62L215,276,224,240.23l4-25.85.71-19.8L232,171.49,236.65,149l7.45-21.21,9.28-18.24L268,88.78S205.49,328.32,223.22,343.83Z" transform="translate(-114.97 -14.5)"/><circle class="cls-5" cx="210.19" cy="130.06" r="6.96"/><circle class="cls-2" cx="210.19" cy="130.06" r="4.55"/></g><g id="Contorno"><path class="cls-6" d="M230.55,198" transform="translate(-114.97 -14.5)"/><path class="cls-6" d="M230.55,198c2.72-51.67,22.06-121.42,80.15-134.52C361.5,52,396.61,99,407.25,142.8c7.63,31.44,2.73,64.35,12.64,95.44,8.34,26.15,21.47,59.91,41.61,78.94,0,0-21.05,19-90.61,51.36,0,36.49-93.41,37.17-93.41,0,0,0-56.14-14.28-88.64-54.87C188.84,313.67,225.32,297.34,230.55,198Z" transform="translate(-114.97 -14.5)"/><path class="cls-6" d="M305.16,277.28" transform="translate(-114.97 -14.5)"/><path class="cls-6" d="M291.38,323.25" transform="translate(-114.97 -14.5)"/><path class="cls-6" d="M361.34,322.57" transform="translate(-114.97 -14.5)"/><path class="cls-6" d="M380.43,368.54" transform="translate(-114.97 -14.5)"/><line class="cls-6" x1="162.6" y1="352.48" x2="168.97" y2="331.24"/><line class="cls-6" x1="255.91" y1="354.04" x2="249.64" y2="331.24"/><circle class="cls-6" cx="210.19" cy="130.06" r="25.9"/><path class="cls-7" d="M347.63,167.46c1.09,1.25,1.09,2.65,0,3.56a1.85,1.85,0,0,1-1.47.45v-.23a1.6,1.6,0,0,0,1.31-.4c1-.83.9-2.06-.1-3.21s-2.2-1.41-3.13-.6a1.77,1.77,0,0,0-.67,1.15l1.14,1.32,1-.86.15.17-1.19,1-1.34-1.55a2,2,0,0,1,.77-1.45C345.16,166,346.54,166.2,347.63,167.46Z" transform="translate(-114.97 -14.5)"/><path class="cls-7" d="M344.87,173.1l-.22.14-1.24-2-2.51,1.56,1.23,2-.21.13-2.78-4.49.21-.13,1.43,2.3,2.52-1.56-1.43-2.3.22-.14Z" transform="translate(-114.97 -14.5)"/><path class="cls-7" d="M339.25,173.39c.63,1.54.2,2.86-1,3.33s-2.38-.17-3-1.71-.22-2.88.94-3.35S338.62,171.85,339.25,173.39Zm-3.71,1.52c.57,1.41,1.63,2,2.67,1.59s1.36-1.6.79-3-1.64-2-2.68-1.62S335,173.5,335.54,174.91Z" transform="translate(-114.97 -14.5)"/><path class="cls-7" d="M333.86,173.39l-.13.22a2.06,2.06,0,0,0-1.71-.35c-.83.2-1.25.78-1.09,1.43s.65.8,1.22.91l.88.17a1.43,1.43,0,0,1,1.35,1,1.34,1.34,0,0,1-1.15,1.58,2,2,0,0,1-1.55-.27l.12-.21a1.68,1.68,0,0,0,1.37.24c.72-.17,1.11-.68,1-1.27s-.74-.75-1.15-.82l-.88-.17c-.63-.12-1.22-.3-1.42-1.09A1.48,1.48,0,0,1,332,173,2.29,2.29,0,0,1,333.86,173.39Z" transform="translate(-114.97 -14.5)"/><path class="cls-7" d="M329,178.76l1.71-.18,0,.22-3.66.39,0-.22,1.7-.18-.53-5,.25,0Z" transform="translate(-114.97 -14.5)"/><path class="cls-7" d="M324.1,179.29l-.27,0-.34-3.25c-.07-.59-.13-1.18-.19-1.76h0c-.19.56-.39,1.12-.6,1.67L321.45,179l-.29,0-.5-3.28-.24-1.76h0l-.56,1.68-1.05,3.1-.26,0,1.79-5.11.26,0,.6,3.88c.05.42.1.78.15,1.21h0c.15-.4.3-.74.44-1.14l1.42-3.66.25,0Z" transform="translate(-114.97 -14.5)"/><path class="cls-7" d="M315.74,177.9l-.21-.06-.37-5.6.27.08.19,3.35c0,.67.07,1.25.08,1.93h0c.36-.58.69-1.05,1.09-1.6l1.94-2.74.25.07Zm1.9-2.75-2.25-.65.06-.21,2.26.64Z" transform="translate(-114.97 -14.5)"/><path class="cls-7" d="M311.77,176.27l1.57.67-.09.2-3.38-1.44.09-.21,1.57.68,2-4.65.23.1Z" transform="translate(-114.97 -14.5)"/><path class="cls-7" d="M310.27,173c-.86,1.43-2.15,1.88-3.31,1.19a1.76,1.76,0,0,1-.83-1.23l.23-.06a1.55,1.55,0,0,0,.72,1.09c1.05.62,2.17.18,3-1.13s.66-2.53-.36-3.14a1.72,1.72,0,0,0-1.52-.13l-.06-.22a1.92,1.92,0,0,1,1.72.15C310.93,170.15,311.13,171.53,310.27,173Z" transform="translate(-114.97 -14.5)"/><path class="cls-7" d="M304.32,172.28l-.19-.16,1.5-1.81-2.27-1.89-1.51,1.8-.2-.16L305,166l.19.17-1.73,2.07,2.28,1.9,1.73-2.08.2.17Z" transform="translate(-114.97 -14.5)"/><circle class="cls-6" cx="210.19" cy="130.06" r="39.45"/><path class="cls-7" d="M304.43,116.81l.18-.14,4.67,3.12-.22.16-2.78-1.89c-.56-.38-1-.7-1.58-1.11l0,0c.24.64.41,1.19.61,1.84l1,3.21-.2.15Zm1,3.18,1.89-1.4.13.18-1.88,1.4Z" transform="translate(-114.97 -14.5)"/><path class="cls-7" d="M307.34,114.82l1.11-.6c1.05-.58,1.84-.58,2.35.35s.13,1.64-.91,2.21l-.91.5,1.12,2-.22.13Zm2.36,1.81c1-.54,1.3-1.13.86-1.93s-1.08-.8-2.09-.24l-.8.44,1.2,2.19Z" transform="translate(-114.97 -14.5)"/><path class="cls-7" d="M311.68,112.61l1.18-.44c1.13-.43,1.91-.31,2.28.68s-.1,1.65-1.21,2.06l-1,.37.82,2.19-.24.09Zm2.08,2.13c1.07-.4,1.45-.94,1.12-1.79s-.95-1-2-.54l-.85.32.88,2.34Z" transform="translate(-114.97 -14.5)"/><path class="cls-7" d="M316.28,111.05l.25-.06,1.15,4.93,2.42-.56,0,.22-2.67.62Z" transform="translate(-114.97 -14.5)"/><path class="cls-7" d="M320.23,110.27l.26,0,.72,5.23-.25,0Z" transform="translate(-114.97 -14.5)"/><path class="cls-7" d="M322.21,112.63c-.06-1.66.78-2.75,2.12-2.8a1.77,1.77,0,0,1,1.37.58l-.16.18a1.5,1.5,0,0,0-1.2-.52c-1.21,0-1.92,1-1.86,2.55s.83,2.48,2,2.44a1.74,1.74,0,0,0,1.35-.72l.17.15a1.93,1.93,0,0,1-1.53.81C323.19,115.35,322.27,114.29,322.21,112.63Z" transform="translate(-114.97 -14.5)"/><path class="cls-7" d="M328.67,110.1l.22,0,1.33,5.45-.27,0-.77-3.26c-.15-.66-.29-1.22-.41-1.9h0c-.26.63-.51,1.15-.8,1.77l-1.44,3-.25,0Zm-1.39,3,2.33.24,0,.22-2.33-.24Z" transform="translate(-114.97 -14.5)"/><path class="cls-7" d="M332.87,111l-1.67-.39.05-.22,3.58.84-.05.21-1.66-.38L332,116l-.25,0Z" transform="translate(-114.97 -14.5)"/><path class="cls-7" d="M336.17,111.71l.25.09-1.7,5-.24-.08Z" transform="translate(-114.97 -14.5)"/><path class="cls-7" d="M336.91,114.69c.71-1.5,2-2.07,3.1-1.54s1.49,1.87.78,3.37-2,2.11-3.12,1.58S336.2,116.2,336.91,114.69Zm3.63,1.72c.65-1.38.38-2.57-.63-3s-2.1.06-2.75,1.44-.4,2.59.62,3.07S339.89,117.78,340.54,116.41Z" transform="translate(-114.97 -14.5)"/><path class="cls-7" d="M343.55,115.15l.22.15-.3,4.51-.09,1.21h0c.28-.43.54-.83.83-1.24l2-2.8.19.13-3,4.33-.22-.15.3-4.51.1-1.2,0,0c-.27.41-.51.79-.8,1.2l-2,2.84-.19-.13Z" transform="translate(-114.97 -14.5)"/></g><g id="Death"><circle class="cls-8" cx="210.19" cy="130.06" r="24.34"/><line class="cls-9" x1="77.36" y1="377.1" x2="343.33" y2="52.3"/><path class="cls-10" d="M325.17,22.5a197.42,197.42,0,0,1,78.64,16.19A201.25,201.25,0,0,1,468.08,82.9a206,206,0,0,1,43.37,65.62,211.13,211.13,0,0,1,0,160.81A206,206,0,0,1,468.08,375a201.25,201.25,0,0,1-64.27,44.21,199.11,199.11,0,0,1-157.29,0A201.47,201.47,0,0,1,182.25,375a206.29,206.29,0,0,1-43.37-65.62,211.13,211.13,0,0,1,0-160.81A206.29,206.29,0,0,1,182.25,82.9a201.47,201.47,0,0,1,64.27-44.21A197.5,197.5,0,0,1,325.17,22.5m0-8c-116.09,0-210.2,96-210.2,214.43s94.11,214.42,210.2,214.42,210.19-96,210.19-214.42S441.25,14.5,325.17,14.5Z" transform="translate(-114.97 -14.5)"/></g></svg>